<?xml version="1.0" encoding="UTF-8"?><svg id="Layer_1" xmlns="http://www.w3.org/2000/svg" viewBox="0 0 241.24 220.43"><defs><style>.cls-1{fill:#fff;fill-rule:evenodd;}</style></defs><path class="cls-1" d="M181.22,49.26c-16.08-16.1-37.46-24.97-60.25-24.98-46.94,0-85.15,38.2-85.17,85.16,0,15.01,3.92,29.66,11.37,42.58l-12.08,44.13,45.15-11.84c12.44,6.78,26.45,10.36,40.7,10.37h.03s0,0,0,0c46.94,0,85.15-38.21,85.17-85.17,0-22.76-8.84-44.16-24.92-60.25ZM120.98,180.29h-.03c-12.7,0-25.16-3.42-36.03-9.87l-2.59-1.53-26.79,7.03,7.15-26.12-1.68-2.68c-7.09-11.27-10.83-24.3-10.82-37.67.02-39.03,31.77-70.78,70.82-70.78,18.91,0,36.68,7.38,50.05,20.76,13.36,13.38,20.72,31.17,20.71,50.08-.02,39.03-31.77,70.79-70.79,70.79ZM163.89,129.76c.53.89.53,5.15-1.24,10.12-1.77,4.97-10.28,9.51-14.36,10.12-3.67.55-8.31.78-13.4-.84-3.09-.98-7.05-2.29-12.13-4.48-21.35-9.22-35.29-30.71-36.35-32.13-1.06-1.42-8.69-11.54-8.69-22.01s5.5-15.62,7.45-17.75c1.95-2.13,4.26-2.66,5.67-2.66s2.84.01,4.08.07c1.31.07,3.06-.5,4.79,3.65,1.77,4.26,6.03,14.73,6.56,15.8.53,1.06.89,2.31.18,3.73-.71,1.42-1.06,2.31-2.13,3.55-1.06,1.24-2.23,2.77-3.19,3.73-1.07,1.06-2.17,2.21-.93,4.34,1.24,2.13,5.51,9.1,11.84,14.74,8.13,7.25,14.99,9.5,17.11,10.56,2.13,1.06,3.37.89,4.61-.53,1.24-1.42,5.32-6.21,6.74-8.34,1.42-2.13,2.84-1.78,4.79-1.07,1.95.71,12.41,5.86,14.54,6.92,2.13,1.06,3.55,1.6,4.08,2.48Z"/></svg>